<?xml version="1.0" standalone="no"?><!DOCTYPE svg PUBLIC "-//W3C//DTD SVG 1.1//EN" "http://www.w3.org/Graphics/SVG/1.1/DTD/svg11.dtd"><svg t="1586884584670" class="icon" viewBox="0 0 1024 1024" version="1.1" xmlns="http://www.w3.org/2000/svg" p-id="4042" xmlns:xlink="http://www.w3.org/1999/xlink" width="200" height="200"><defs><style type="text/css"></style></defs><path d="M923.168 806.4c5.856 39.872 39.872 34.016 45.76 51.616 0 11.136-5.888 51.584-22.88 56.864-17.024 0-39.872-5.856-56.896 0-11.136 5.888-22.88 11.168-28.736 22.88-11.136 28.736 11.136 51.616 0 62.752-16.992 11.136-51.616 28.736-62.72 17.024-17.024-17.024-17.024-39.904-51.648-39.904-45.76 0-45.76 45.76-68.608 45.76-22.88 0-62.72-17.024-62.72-34.016 5.824-22.88 16.96-39.872-5.888-62.752-28.736-22.88-62.752 0-74.496-11.136-16.992-11.136-22.848-39.872-16.992-56.896 5.856-16.992 45.76-16.992 45.76-62.72 0-34.048-39.904-39.904-45.76-62.784-5.856-16.992 5.856-45.76 22.88-51.616 28.736-11.136 45.76 11.168 74.464-11.136 17.024-16.992 11.136-56.864 11.136-68.608 5.888-16.992 28.736-22.88 45.76-22.88 34.016 0 22.88 39.872 68.608 45.76 45.76 0 39.872-17.024 62.752-45.76 28.736 0 51.616 11.136 56.896 22.88 11.136 22.88-11.136 56.896 22.848 79.744 28.736 17.024 56.896-5.856 74.496 0 11.136 5.888 16.992 22.88 22.88 45.76-11.168 33.408-62.752 27.552-56.896 79.168z m-205.856-114.368c-137.216 34.016-85.6 234.016 45.76 211.712 131.936-28.736 114.368-240.448-45.76-211.712z m-233.984-200c-137.216 0-245.728-108.48-245.728-245.696s108.48-245.728 245.76-245.728c137.184 0 245.696 108.48 245.696 245.728 0 131.36-108.48 245.728-245.728 245.728z m200 56.928s-91.52 0-85.632 62.72c5.856 68.64-85.632 17.024-102.624 74.496-22.88 68.608 11.136 56.896 28.736 102.624 11.136 28.736-45.76 45.76-39.904 97.344 11.168 68.64 68.64 34.016 85.632 74.496 11.136 34.016-28.736 56.896-120.224 56.896-74.464 0-216.96 0-268.576-5.888 0 0-148.384-5.856-148.384-102.624 0 0-5.856-143.104 85.632-245.728 0 0 97.344-125.504 262.72-125.504l302.592 11.168z" p-id="4043"></path></svg>