<?xml version="1.0" standalone="no"?><!DOCTYPE svg PUBLIC "-//W3C//DTD SVG 1.1//EN" "http://www.w3.org/Graphics/SVG/1.1/DTD/svg11.dtd"><svg t="1584946706067" class="icon" viewBox="0 0 1024 1024" version="1.1" xmlns="http://www.w3.org/2000/svg" p-id="1728" xmlns:xlink="http://www.w3.org/1999/xlink" width="500" height="500"><defs><style type="text/css"></style></defs><path d="M1021.413617 584.259566a39.922755 39.922755 0 0 1-11.976826 29.542839c-7.984551 7.984551-17.566012 12.775281-28.744383 12.775281h-143.721917c0 74.256324-13.573737 136.535821-42.31812 188.435402l132.543546 135.737365a39.922755 39.922755 0 0 1 12.775281 29.542839 39.922755 39.922755 0 0 1-12.775281 29.542838c-7.984551 7.984551-16.767557 11.976826-28.744384 11.976826-11.178371 0-20.759832-3.992275-27.945928-11.976826l-126.954359-127.752815a123.760539 123.760539 0 0 1-9.581461 7.984551l-26.349018 18.364467a400.026001 400.026001 0 0 1-41.519665 23.953653 290.637653 290.637653 0 0 1-114.179078 27.147473v-582.872216H471.278059v582.872216a257.102539 257.102539 0 0 1-119.768263-30.341293 533.368001 533.368001 0 0 1-42.31812-25.550563c-12.775281-7.984551-22.356743-15.969102-27.945928-20.759832l-9.581461-9.581462-116.574444 135.737366a40.72121 40.72121 0 0 1-58.287221 3.19382c-7.984551-7.984551-11.976826-18.364467-12.775282-29.542838 0-11.178371 2.395365-21.558287 9.581461-30.341293l129.349725-147.714192C197.407963 755.128956 183.834227 695.244824 183.834227 626.577686H41.70922c-10.379916 0-19.961377-4.790731-28.744383-12.775281S0.988011 595.437938 0.988011 584.259566a39.922755 39.922755 0 0 1 11.976826-28.744383c7.984551-7.984551 18.364467-12.775281 28.744383-12.775281h143.721917V351.909135l-111.783713-111.783713a39.922755 39.922755 0 0 1-11.976826-29.542838 39.922755 39.922755 0 0 1 11.976826-29.542839c7.984551-7.984551 17.566012-12.775281 28.744383-12.775281s20.759832 4.790731 28.744384 12.775281l110.186802 112.582168h538.158732l110.186802-112.582168a39.124299 39.124299 0 0 1 57.488767 0 39.922755 39.922755 0 0 1 11.976826 29.542839 39.922755 39.922755 0 0 1-11.976826 28.744383L837.768946 351.909135v191.629222h142.923462c11.178371 0 20.759832 3.992275 28.744383 12.775281a39.922755 39.922755 0 0 1 11.976826 28.744383z m-305.8083-375.273893H306.796311C306.796311 152.295362 327.556143 103.589601 367.478898 62.868392 407.401652 22.147182 455.308958 1.38735 511.200814 1.38735s104.597617 19.961377 143.721916 60.682587c39.922755 39.922755 60.682587 89.42697 60.682587 147.714192z" p-id="1729"></path></svg>