<?xml version="1.0" standalone="no"?><!DOCTYPE svg PUBLIC "-//W3C//DTD SVG 1.1//EN" "http://www.w3.org/Graphics/SVG/1.1/DTD/svg11.dtd"><svg t="1586879226505" class="icon" viewBox="0 0 1024 1024" version="1.1" xmlns="http://www.w3.org/2000/svg" p-id="3876" xmlns:xlink="http://www.w3.org/1999/xlink" width="200" height="200"><defs><style type="text/css"></style></defs><path d="M335.872 422.430118c25.118118 61.078588 94.147765 104.146824 174.320941 104.146823 74.691765 0 139.685647-37.345882 168.538353-91.858823l4.517647-9.276236 26.021647 37.285647 6.384941 8.432942a155.226353 155.226353 0 0 0 178.236236 46.742588v355.809882a120.470588 120.470588 0 0 1-120.470589 120.470588H245.880471a120.470588 120.470588 0 0 1-120.470589-120.470588V514.409412a155.286588 155.286588 0 0 0 177.694118-45.95953l6.866824-9.155764 25.840941-36.924236z m294.249412 369.423058h-240.941177l-5.421176 0.481883a30.117647 30.117647 0 0 0 0 59.271529l5.421176 0.481883h240.941177l5.421176-0.481883a30.117647 30.117647 0 0 0-5.421176-59.753412zM280.696471 51.440941l481.882353 0.060235c4.216471 0 8.372706 0.180706 12.468705 0.602353l3.493647 0.240942 1.807059 0.301176c36.803765 4.577882 70.174118 23.371294 93.304471 52.284235 1.385412 1.686588 2.409412 3.553882 3.19247 5.481412l4.577883 6.204235 82.100706 117.278118 4.577882 6.866824a155.166118 155.166118 0 0 1-252.385882 179.621647l-6.384941-8.432942-26.021648-37.345882c-26.202353 59.512471-94.268235 101.135059-173.056 101.135059-80.112941 0-149.202824-43.068235-174.320941-104.146824l-25.840941 36.924236a155.166118 155.166118 0 0 1-258.710588-171.068236l4.517647-6.927058 79.811765-113.904942A155.105882 155.105882 0 0 1 280.636235 51.440941z" p-id="3877"></path></svg>