<?xml version="1.0" standalone="no"?><!DOCTYPE svg PUBLIC "-//W3C//DTD SVG 1.1//EN" "http://www.w3.org/Graphics/SVG/1.1/DTD/svg11.dtd"><svg t="1585018555572" class="icon" viewBox="0 0 1024 1024" version="1.1" xmlns="http://www.w3.org/2000/svg" p-id="1327" xmlns:xlink="http://www.w3.org/1999/xlink" width="500" height="500"><defs><style type="text/css"></style></defs><path d="M866.986667 571.733333L843.093333 546.133333l18.773334-20.48c49.493333-46.08 76.8-109.226667 76.8-175.786666 0-134.826667-109.226667-244.053333-244.053334-244.053334-71.68 0-138.24 30.72-184.32 83.626667l-1.706666 1.706667C462.506667 146.773333 399.36 119.466667 332.8 119.466667 196.266667 119.466667 85.333333 230.4 85.333333 366.933333c0 80.213333 39.253333 153.6 104.106667 201.386667l-20.48 20.48c-25.6 25.6-25.6 66.56 0 92.16 11.946667 11.946667 29.013333 18.773333 46.08 18.773333h6.826667c0 17.066667 6.826667 34.133333 18.773333 46.08 11.946667 11.946667 29.013333 18.773333 46.08 18.773334h5.12c-1.706667 18.773333 5.12 37.546667 18.773333 51.2 11.946667 11.946667 29.013333 18.773333 46.08 18.773333h5.12c-1.706667 18.773333 5.12 37.546667 18.773334 51.2 13.653333 13.653333 29.013333 18.773333 46.08 18.773333s34.133333-6.826667 46.08-18.773333l18.773333-18.773333c3.413333 17.066667 10.24 32.426667 22.186667 40.96 8.533333 6.826667 20.48 10.24 32.426666 10.24 3.413333 0 6.826667 0 10.24-1.706667 18.773333-3.413333 34.133333-13.653333 44.373334-29.013333 10.24-15.36 8.533333-47.786667 3.413333-75.093334 20.48 10.24 39.253333 11.946667 56.32 5.12 27.306667-11.946667 39.253333-44.373333 44.373333-64.853333 6.826667 1.706667 15.36 3.413333 22.186667 3.413333 13.653333 0 25.6-3.413333 37.546667-10.24 25.6-17.066667 30.72-49.493333 32.426666-69.973333 22.186667-1.706667 40.96-10.24 52.906667-23.893333 25.6-27.306667 20.48-66.56 20.48-68.266667 1.706667-6.826667 0-10.24-3.413333-11.946667zM694.613333 139.946667c116.053333 0 209.92 93.866667 209.92 209.92 0 58.026667-23.893333 112.64-66.56 151.893333L819.2 520.533333 532.48 216.746667l3.413333-3.413334c40.96-46.08 98.986667-73.386667 158.72-73.386666z m-186.026666 102.4l109.226666 116.053333-37.546666 40.96c-39.253333 44.373333-100.693333 46.08-102.4 46.08h-1.706667c-87.04 11.946667-112.64-32.426667-121.173333-51.2l153.6-151.893333zM192.853333 657.066667c-11.946667-11.946667-11.946667-32.426667 0-44.373334l110.933334-110.933333c6.826667-6.826667 13.653333-8.533333 22.186666-8.533333s15.36 3.413333 22.186667 8.533333c11.946667 11.946667 11.946667 32.426667 0 44.373333l-110.933333 110.933334c-13.653333 11.946667-32.426667 11.946667-44.373334 0z m71.68 64.853333c-11.946667-11.946667-11.946667-32.426667 0-44.373333l110.933334-110.933334c6.826667-6.826667 13.653333-8.533333 22.186666-8.533333s15.36 3.413333 22.186667 8.533333c11.946667 11.946667 11.946667 32.426667 0 44.373334l-110.933333 110.933333c-11.946667 11.946667-32.426667 11.946667-44.373334 0z m69.973334 69.973333c-11.946667-11.946667-11.946667-32.426667 0-44.373333l110.933333-110.933333c6.826667-6.826667 13.653333-8.533333 22.186667-8.533334s15.36 3.413333 22.186666 8.533334c11.946667 11.946667 11.946667 32.426667 0 44.373333l-110.933333 110.933333c-11.946667 11.946667-32.426667 11.946667-44.373333 0z m114.346666 69.973334c-11.946667 11.946667-32.426667 11.946667-44.373333 0-11.946667-11.946667-11.946667-32.426667 0-44.373334l110.933333-110.933333c11.946667-11.946667 32.426667-11.946667 44.373334 0 11.946667 11.946667 11.946667 32.426667 0 44.373333l-110.933334 110.933334z m122.88 6.826666c-5.12 6.826667-11.946667 11.946667-20.48 13.653334-6.826667 1.706667-11.946667 0-17.066666-3.413334-3.413333-3.413333-8.533333-11.946667-8.533334-22.186666-1.706667-11.946667 1.706667-22.186667 6.826667-29.013334l34.133333-34.133333c8.533333 34.133333 10.24 68.266667 5.12 75.093333z m254.293334-242.346666c-8.533333 8.533333-22.186667 13.653333-39.253334 13.653333l-126.293333-116.053333c-6.826667-6.826667-17.066667-6.826667-23.893333 1.706666-6.826667 6.826667-6.826667 17.066667 1.706666 23.893334l124.586667 116.053333c0 13.653333-3.413333 40.96-18.773333 51.2-13.653333 10.24-35.84 3.413333-52.906667-3.413333l-114.346667-112.64c-6.826667-6.826667-17.066667-6.826667-23.893333 0-6.826667 6.826667-6.826667 17.066667 0 23.893333l119.466667 116.053333c-3.413333 17.066667-10.24 39.253333-25.6 46.08-11.946667 5.12-32.426667-3.413333-56.32-22.186666 15.36-25.6 11.946667-58.026667-10.24-80.213334-13.653333-13.653333-32.426667-20.48-51.2-18.773333 1.706667-18.773333-5.12-37.546667-18.773334-51.2-13.653333-13.653333-34.133333-20.48-51.2-18.773333 1.706667-18.773333-5.12-37.546667-18.773333-51.2-13.653333-15.36-34.133333-20.48-52.906667-18.773334 0-17.066667-6.826667-34.133333-18.773333-46.08-25.6-25.6-66.56-25.6-92.16 0l-64.853333 64.853334C155.306667 503.466667 119.466667 436.906667 119.466667 366.933333 119.466667 249.173333 215.04 153.6 332.8 153.6c56.32 0 112.64 23.893333 151.893333 64.853333L324.266667 378.88c-3.413333 3.413333-5.12 10.24-5.12 15.36 0 1.706667 22.186667 105.813333 160.426666 87.04 10.24 0 78.506667-5.12 124.586667-58.026667l35.84-39.253333L836.266667 592.213333c1.706667 6.826667 0 22.186667-10.24 34.133334z" p-id="1328"></path></svg>