<?xml version="1.0" standalone="no"?><!DOCTYPE svg PUBLIC "-//W3C//DTD SVG 1.1//EN" "http://www.w3.org/Graphics/SVG/1.1/DTD/svg11.dtd"><svg t="1585018454175" class="icon" viewBox="0 0 1024 1024" version="1.1" xmlns="http://www.w3.org/2000/svg" p-id="1187" xmlns:xlink="http://www.w3.org/1999/xlink" width="500" height="500"><defs><style type="text/css"></style></defs><path d="M925.538462 118.153846H98.461538a98.697846 98.697846 0 0 0-98.461538 98.717539v590.158769a98.697846 98.697846 0 0 0 98.461538 98.717538h827.076924a98.697846 98.697846 0 0 0 98.461538-98.717538v-590.178462A98.697846 98.697846 0 0 0 925.538462 118.153846z m59.076923 688.876308a59.214769 59.214769 0 0 1-59.076923 59.234461h-94.365539v-39.85723a19.692308 19.692308 0 1 0-39.384615 0v39.85723H232.211692v-39.85723a19.692308 19.692308 0 1 0-39.384615 0v39.85723H98.461538a59.214769 59.214769 0 0 1-59.076923-59.234461v-590.178462A59.214769 59.214769 0 0 1 98.461538 157.538462h94.365539v39.85723a19.692308 19.692308 0 1 0 39.384615 0V157.538462h559.576616v39.85723a19.692308 19.692308 0 1 0 39.384615 0V157.538462H925.538462a59.214769 59.214769 0 0 1 59.076923 59.234461v590.158769zM312.123077 529.191385q25.344-10.417231 50.333538-21.661539v-91.687384h-47.53723v-28.041847h47.53723v-73.64923h29.932308v73.64923h45.134769v28.041847h-45.134769v77.883076q21.169231-9.846154 41.944615-20.243692 1.181538 18.471385 3.190154 32.039385c-14.237538 6.833231-29.282462 14.001231-45.134769 21.661538v132.529231q0 44.839385-35.446154 44.819692-15.182769 0-36.765538-0.393846-1.555692-14.414769-4.785231-32.039384 20.755692 1.614769 31.153231 1.614769a14.907077 14.907077 0 0 0 15.990154-17.624616V541.538462q-22.193231 11.047385-46.336 22.843076z m140.977231-182.212923a1661.282462 1661.282462 0 0 0 235.224615-17.191385l11.165539 30.030769q-57.481846 5.395692-105.826462 8.999385 0.413538 42.633846 3.800615 101.907692h107.224616v28.809846h-105.432616q8.585846 107.283692 40.723693 147.692308a43.874462 43.874462 0 0 0 26.781538 19.2c5.060923 0 8.388923-4.548923 9.984-13.607385q3.938462-22.862769 6.380308-55.650461a208.580923 208.580923 0 0 0 28.750769 10.791384q-3.564308 35.623385-7.876923 57.265231-6.813538 35.623385-32.748308 35.643077a72.014769 72.014769 0 0 1-55.906461-36.017231q-36.942769-52.460308-45.745231-165.415384h-86.055385v141.371077q39.936-22.449231 74.279385-42.850462 2.776615 18.412308 5.907692 30.818462-51.889231 28.455385-80.738461 46.848a166.518154 166.518154 0 0 0-22.784 17.624615l-20.736-25.6a46.198154 46.198154 0 0 0 13.568-36.450462V346.958769z m110.276923 23.847384q-44.327385 2.599385-79.872 3.387077v96.492308h84.283077q-2.855385-44.859077-4.470154-99.899077z m-31.153231 292.096l20.361846-16.423384a526.946462 526.946462 0 0 1 43.145846 44.406153l-22.764307 18.825847a496.384 496.384 0 0 0-40.802462-46.828308z" p-id="1188"></path></svg>