<?xml version="1.0" standalone="no"?><!DOCTYPE svg PUBLIC "-//W3C//DTD SVG 1.1//EN" "http://www.w3.org/Graphics/SVG/1.1/DTD/svg11.dtd"><svg t="1584946659169" class="icon" viewBox="0 0 1024 1024" version="1.1" xmlns="http://www.w3.org/2000/svg" p-id="1446" xmlns:xlink="http://www.w3.org/1999/xlink" width="500" height="500"><defs><style type="text/css"></style></defs><path d="M358.4 0h636c20 0 29.6 11.2 29.6 34.4v187.2c0 23.2-9.6 34.4-29.6 34.4H358.4c-19.2 0-29.6-11.2-29.6-34.4V34.4c0-23.2 10.4-34.4 29.6-34.4z m183.2 384h452.8c20 0 29.6 11.2 29.6 34.4v187.2c0 23.2-9.6 34.4-29.6 34.4H541.6c-20 0-29.6-11.2-29.6-34.4V418.4c0-23.2 9.6-34.4 29.6-34.4z m0 384h452.8c20 0 29.6 11.2 29.6 34.4v187.2c0 23.2-9.6 34.4-29.6 34.4H541.6c-20 0-29.6-11.2-29.6-34.4v-187.2c0-23.2 9.6-34.4 29.6-34.4zM402.4 546.4c16 0 28.8-16 28.8-34.4 0-19.2-12.8-34.4-28.8-34.4h-264V256h52c16 0 28.8-16 28.8-34.4V34.4c0-19.2-12.8-34.4-28.8-34.4H29.6C13.6 0 0 16 0 34.4v187.2C0 240.8 12.8 256 29.6 256H80v640c0 19.2 12.8 34.4 28.8 34.4h292.8c16 0 28.8-16 28.8-34.4 0-19.2-12.8-34.4-28.8-34.4h-264V546.4h264z" p-id="1447"></path></svg>